<mxfile host="app.diagrams.net" modified="2023-06-19T14:58:19.193Z" agent="Mozilla/5.0 (Windows NT 10.0; Win64; x64) AppleWebKit/537.36 (KHTML, like Gecko) Chrome/114.0.0.0 Safari/537.36" etag="xjePZCSi_uCpkz1Sz0pY" version="21.4.0" type="device">
  <diagram name="Сторінка-1" id="Barpjzp2TPfuO6GInw3B">
    <mxGraphModel dx="1687" dy="936" grid="1" gridSize="10" guides="1" tooltips="1" connect="1" arrows="1" fold="1" page="1" pageScale="1" pageWidth="827" pageHeight="1169" math="0" shadow="0">
      <root>
        <mxCell id="0" />
        <mxCell id="1" parent="0" />
        <mxCell id="vIIaNH_cV5r8bSQWFhUs-79" style="edgeStyle=orthogonalEdgeStyle;rounded=0;orthogonalLoop=1;jettySize=auto;html=1;exitX=0.486;exitY=1.007;exitDx=0;exitDy=0;entryX=0.486;entryY=-0.012;entryDx=0;entryDy=0;entryPerimeter=0;exitPerimeter=0;" edge="1" parent="1" source="vIIaNH_cV5r8bSQWFhUs-4" target="vIIaNH_cV5r8bSQWFhUs-8">
          <mxGeometry relative="1" as="geometry" />
        </mxCell>
        <mxCell id="vIIaNH_cV5r8bSQWFhUs-1" value="AddresBook" style="swimlane;fontStyle=1;align=center;verticalAlign=top;childLayout=stackLayout;horizontal=1;startSize=26;horizontalStack=0;resizeParent=1;resizeParentMax=0;resizeLast=0;collapsible=1;marginBottom=0;whiteSpace=wrap;html=1;" vertex="1" parent="1">
          <mxGeometry x="30" y="30" width="380" height="140" as="geometry" />
        </mxCell>
        <mxCell id="vIIaNH_cV5r8bSQWFhUs-2" value="+data: dict" style="text;strokeColor=none;fillColor=none;align=left;verticalAlign=top;spacingLeft=4;spacingRight=4;overflow=hidden;rotatable=0;points=[[0,0.5],[1,0.5]];portConstraint=eastwest;whiteSpace=wrap;html=1;" vertex="1" parent="vIIaNH_cV5r8bSQWFhUs-1">
          <mxGeometry y="26" width="380" height="26" as="geometry" />
        </mxCell>
        <mxCell id="vIIaNH_cV5r8bSQWFhUs-3" value="" style="line;strokeWidth=1;fillColor=none;align=left;verticalAlign=middle;spacingTop=-1;spacingLeft=3;spacingRight=3;rotatable=0;labelPosition=right;points=[];portConstraint=eastwest;strokeColor=inherit;" vertex="1" parent="vIIaNH_cV5r8bSQWFhUs-1">
          <mxGeometry y="52" width="380" height="8" as="geometry" />
        </mxCell>
        <mxCell id="vIIaNH_cV5r8bSQWFhUs-4" value="+add_record(inout record: Record&lt;span style=&quot;background-color: initial;&quot;&gt;): None&lt;/span&gt;&lt;br&gt;+get_record_from_book(in name: Name, out record: Record&lt;span style=&quot;background-color: initial;&quot;&gt;): Record&lt;br&gt;+iterator(in N: int, out data_output: list): list&lt;br&gt;+save_to_file(): None&lt;br&gt;+load_from_file(): None&lt;br&gt;&lt;/span&gt;" style="text;strokeColor=none;fillColor=none;align=left;verticalAlign=top;spacingLeft=4;spacingRight=4;overflow=hidden;rotatable=0;points=[[0,0.5],[1,0.5]];portConstraint=eastwest;whiteSpace=wrap;html=1;" vertex="1" parent="vIIaNH_cV5r8bSQWFhUs-1">
          <mxGeometry y="60" width="380" height="80" as="geometry" />
        </mxCell>
        <mxCell id="vIIaNH_cV5r8bSQWFhUs-74" style="edgeStyle=orthogonalEdgeStyle;rounded=0;orthogonalLoop=1;jettySize=auto;html=1;entryX=0.5;entryY=0;entryDx=0;entryDy=0;startArrow=diamond;startFill=1;exitX=0.131;exitY=1.006;exitDx=0;exitDy=0;exitPerimeter=0;" edge="1" parent="1" source="vIIaNH_cV5r8bSQWFhUs-11" target="vIIaNH_cV5r8bSQWFhUs-49">
          <mxGeometry relative="1" as="geometry">
            <mxPoint x="80" y="420" as="sourcePoint" />
            <Array as="points">
              <mxPoint x="80" y="440" />
              <mxPoint x="520" y="440" />
            </Array>
          </mxGeometry>
        </mxCell>
        <mxCell id="vIIaNH_cV5r8bSQWFhUs-77" style="edgeStyle=orthogonalEdgeStyle;rounded=0;orthogonalLoop=1;jettySize=auto;html=1;entryX=0.5;entryY=0;entryDx=0;entryDy=0;" edge="1" parent="1" target="vIIaNH_cV5r8bSQWFhUs-58">
          <mxGeometry relative="1" as="geometry">
            <mxPoint x="120" y="440" as="sourcePoint" />
            <Array as="points">
              <mxPoint x="120" y="490" />
              <mxPoint x="120" y="490" />
            </Array>
          </mxGeometry>
        </mxCell>
        <mxCell id="vIIaNH_cV5r8bSQWFhUs-78" style="edgeStyle=orthogonalEdgeStyle;rounded=0;orthogonalLoop=1;jettySize=auto;html=1;entryX=0.5;entryY=0;entryDx=0;entryDy=0;" edge="1" parent="1" target="vIIaNH_cV5r8bSQWFhUs-54">
          <mxGeometry relative="1" as="geometry">
            <mxPoint x="320" y="440" as="sourcePoint" />
            <Array as="points">
              <mxPoint x="320" y="440" />
            </Array>
          </mxGeometry>
        </mxCell>
        <mxCell id="vIIaNH_cV5r8bSQWFhUs-8" value="Record" style="swimlane;fontStyle=1;align=center;verticalAlign=top;childLayout=stackLayout;horizontal=1;startSize=26;horizontalStack=0;resizeParent=1;resizeParentMax=0;resizeLast=0;collapsible=1;marginBottom=0;whiteSpace=wrap;html=1;" vertex="1" parent="1">
          <mxGeometry x="30" y="220" width="380" height="190" as="geometry" />
        </mxCell>
        <mxCell id="vIIaNH_cV5r8bSQWFhUs-9" value="+name: Name&lt;br&gt;+phones: list&lt;br&gt;+birthday: str" style="text;strokeColor=none;fillColor=none;align=left;verticalAlign=top;spacingLeft=4;spacingRight=4;overflow=hidden;rotatable=0;points=[[0,0.5],[1,0.5]];portConstraint=eastwest;whiteSpace=wrap;html=1;" vertex="1" parent="vIIaNH_cV5r8bSQWFhUs-8">
          <mxGeometry y="26" width="380" height="54" as="geometry" />
        </mxCell>
        <mxCell id="vIIaNH_cV5r8bSQWFhUs-10" value="" style="line;strokeWidth=1;fillColor=none;align=left;verticalAlign=middle;spacingTop=-1;spacingLeft=3;spacingRight=3;rotatable=0;labelPosition=right;points=[];portConstraint=eastwest;strokeColor=inherit;" vertex="1" parent="vIIaNH_cV5r8bSQWFhUs-8">
          <mxGeometry y="80" width="380" height="8" as="geometry" />
        </mxCell>
        <mxCell id="vIIaNH_cV5r8bSQWFhUs-11" value="+add_phone(in phone: str): None&lt;br&gt;+add_birthday(in birthday: str): None&lt;br&gt;+delete_phone(in phone: str): None&lt;br&gt;+change_phone(in new_phone: str): Nine&lt;br&gt;&lt;span style=&quot;background-color: initial;&quot;&gt;+days_to_birthday(): str&lt;br&gt;+__str__(): str&lt;br&gt;&lt;/span&gt;" style="text;strokeColor=none;fillColor=none;align=left;verticalAlign=top;spacingLeft=4;spacingRight=4;overflow=hidden;rotatable=0;points=[[0,0.5],[1,0.5]];portConstraint=eastwest;whiteSpace=wrap;html=1;" vertex="1" parent="vIIaNH_cV5r8bSQWFhUs-8">
          <mxGeometry y="88" width="380" height="102" as="geometry" />
        </mxCell>
        <mxCell id="vIIaNH_cV5r8bSQWFhUs-17" value="Field" style="swimlane;fontStyle=1;align=center;verticalAlign=top;childLayout=stackLayout;horizontal=1;startSize=26;horizontalStack=0;resizeParent=1;resizeParentMax=0;resizeLast=0;collapsible=1;marginBottom=0;whiteSpace=wrap;html=1;" vertex="1" parent="1">
          <mxGeometry x="640" y="520" width="160" height="52" as="geometry" />
        </mxCell>
        <mxCell id="vIIaNH_cV5r8bSQWFhUs-18" value="#value: None" style="text;strokeColor=none;fillColor=none;align=left;verticalAlign=top;spacingLeft=4;spacingRight=4;overflow=hidden;rotatable=0;points=[[0,0.5],[1,0.5]];portConstraint=eastwest;whiteSpace=wrap;html=1;" vertex="1" parent="vIIaNH_cV5r8bSQWFhUs-17">
          <mxGeometry y="26" width="160" height="26" as="geometry" />
        </mxCell>
        <mxCell id="vIIaNH_cV5r8bSQWFhUs-70" style="edgeStyle=orthogonalEdgeStyle;rounded=0;orthogonalLoop=1;jettySize=auto;html=1;exitX=0.5;exitY=1;exitDx=0;exitDy=0;endArrow=none;endFill=0;" edge="1" parent="1" source="vIIaNH_cV5r8bSQWFhUs-49">
          <mxGeometry relative="1" as="geometry">
            <mxPoint x="519.8571428571429" y="640" as="targetPoint" />
            <mxPoint x="520" y="610" as="sourcePoint" />
          </mxGeometry>
        </mxCell>
        <mxCell id="vIIaNH_cV5r8bSQWFhUs-49" value="Name" style="swimlane;fontStyle=1;align=center;verticalAlign=top;childLayout=stackLayout;horizontal=1;startSize=26;horizontalStack=0;resizeParent=1;resizeParentMax=0;resizeLast=0;collapsible=1;marginBottom=0;whiteSpace=wrap;html=1;" vertex="1" parent="1">
          <mxGeometry x="440" y="520" width="160" height="86" as="geometry" />
        </mxCell>
        <mxCell id="vIIaNH_cV5r8bSQWFhUs-50" value="#value: str" style="text;strokeColor=none;fillColor=none;align=left;verticalAlign=top;spacingLeft=4;spacingRight=4;overflow=hidden;rotatable=0;points=[[0,0.5],[1,0.5]];portConstraint=eastwest;whiteSpace=wrap;html=1;" vertex="1" parent="vIIaNH_cV5r8bSQWFhUs-49">
          <mxGeometry y="26" width="160" height="26" as="geometry" />
        </mxCell>
        <mxCell id="vIIaNH_cV5r8bSQWFhUs-51" value="" style="line;strokeWidth=1;fillColor=none;align=left;verticalAlign=middle;spacingTop=-1;spacingLeft=3;spacingRight=3;rotatable=0;labelPosition=right;points=[];portConstraint=eastwest;strokeColor=inherit;" vertex="1" parent="vIIaNH_cV5r8bSQWFhUs-49">
          <mxGeometry y="52" width="160" height="8" as="geometry" />
        </mxCell>
        <mxCell id="vIIaNH_cV5r8bSQWFhUs-52" value="+ value()" style="text;strokeColor=none;fillColor=none;align=left;verticalAlign=top;spacingLeft=4;spacingRight=4;overflow=hidden;rotatable=0;points=[[0,0.5],[1,0.5]];portConstraint=eastwest;whiteSpace=wrap;html=1;" vertex="1" parent="vIIaNH_cV5r8bSQWFhUs-49">
          <mxGeometry y="60" width="160" height="26" as="geometry" />
        </mxCell>
        <mxCell id="vIIaNH_cV5r8bSQWFhUs-69" style="edgeStyle=orthogonalEdgeStyle;rounded=0;orthogonalLoop=1;jettySize=auto;html=1;exitX=0.5;exitY=1.004;exitDx=0;exitDy=0;exitPerimeter=0;endArrow=none;endFill=0;" edge="1" parent="1" source="vIIaNH_cV5r8bSQWFhUs-57">
          <mxGeometry relative="1" as="geometry">
            <mxPoint x="319.8571428571429" y="640" as="targetPoint" />
          </mxGeometry>
        </mxCell>
        <mxCell id="vIIaNH_cV5r8bSQWFhUs-54" value="Phone" style="swimlane;fontStyle=1;align=center;verticalAlign=top;childLayout=stackLayout;horizontal=1;startSize=26;horizontalStack=0;resizeParent=1;resizeParentMax=0;resizeLast=0;collapsible=1;marginBottom=0;whiteSpace=wrap;html=1;" vertex="1" parent="1">
          <mxGeometry x="240" y="520" width="160" height="86" as="geometry" />
        </mxCell>
        <mxCell id="vIIaNH_cV5r8bSQWFhUs-55" value="#value: list" style="text;strokeColor=none;fillColor=none;align=left;verticalAlign=top;spacingLeft=4;spacingRight=4;overflow=hidden;rotatable=0;points=[[0,0.5],[1,0.5]];portConstraint=eastwest;whiteSpace=wrap;html=1;" vertex="1" parent="vIIaNH_cV5r8bSQWFhUs-54">
          <mxGeometry y="26" width="160" height="26" as="geometry" />
        </mxCell>
        <mxCell id="vIIaNH_cV5r8bSQWFhUs-56" value="" style="line;strokeWidth=1;fillColor=none;align=left;verticalAlign=middle;spacingTop=-1;spacingLeft=3;spacingRight=3;rotatable=0;labelPosition=right;points=[];portConstraint=eastwest;strokeColor=inherit;" vertex="1" parent="vIIaNH_cV5r8bSQWFhUs-54">
          <mxGeometry y="52" width="160" height="8" as="geometry" />
        </mxCell>
        <mxCell id="vIIaNH_cV5r8bSQWFhUs-57" value="+ value()" style="text;strokeColor=none;fillColor=none;align=left;verticalAlign=top;spacingLeft=4;spacingRight=4;overflow=hidden;rotatable=0;points=[[0,0.5],[1,0.5]];portConstraint=eastwest;whiteSpace=wrap;html=1;" vertex="1" parent="vIIaNH_cV5r8bSQWFhUs-54">
          <mxGeometry y="60" width="160" height="26" as="geometry" />
        </mxCell>
        <mxCell id="vIIaNH_cV5r8bSQWFhUs-68" style="edgeStyle=orthogonalEdgeStyle;rounded=0;orthogonalLoop=1;jettySize=auto;html=1;exitX=0.501;exitY=1.021;exitDx=0;exitDy=0;entryX=0.5;entryY=1;entryDx=0;entryDy=0;endArrow=block;endFill=0;exitPerimeter=0;" edge="1" parent="1" source="vIIaNH_cV5r8bSQWFhUs-61" target="vIIaNH_cV5r8bSQWFhUs-17">
          <mxGeometry relative="1" as="geometry">
            <Array as="points">
              <mxPoint x="120" y="640" />
              <mxPoint x="720" y="640" />
            </Array>
          </mxGeometry>
        </mxCell>
        <mxCell id="vIIaNH_cV5r8bSQWFhUs-58" value="Birthday" style="swimlane;fontStyle=1;align=center;verticalAlign=top;childLayout=stackLayout;horizontal=1;startSize=26;horizontalStack=0;resizeParent=1;resizeParentMax=0;resizeLast=0;collapsible=1;marginBottom=0;whiteSpace=wrap;html=1;" vertex="1" parent="1">
          <mxGeometry x="40" y="520" width="160" height="86" as="geometry" />
        </mxCell>
        <mxCell id="vIIaNH_cV5r8bSQWFhUs-59" value="#value: str" style="text;strokeColor=none;fillColor=none;align=left;verticalAlign=top;spacingLeft=4;spacingRight=4;overflow=hidden;rotatable=0;points=[[0,0.5],[1,0.5]];portConstraint=eastwest;whiteSpace=wrap;html=1;" vertex="1" parent="vIIaNH_cV5r8bSQWFhUs-58">
          <mxGeometry y="26" width="160" height="26" as="geometry" />
        </mxCell>
        <mxCell id="vIIaNH_cV5r8bSQWFhUs-60" value="" style="line;strokeWidth=1;fillColor=none;align=left;verticalAlign=middle;spacingTop=-1;spacingLeft=3;spacingRight=3;rotatable=0;labelPosition=right;points=[];portConstraint=eastwest;strokeColor=inherit;" vertex="1" parent="vIIaNH_cV5r8bSQWFhUs-58">
          <mxGeometry y="52" width="160" height="8" as="geometry" />
        </mxCell>
        <mxCell id="vIIaNH_cV5r8bSQWFhUs-61" value="+ value()" style="text;strokeColor=none;fillColor=none;align=left;verticalAlign=top;spacingLeft=4;spacingRight=4;overflow=hidden;rotatable=0;points=[[0,0.5],[1,0.5]];portConstraint=eastwest;whiteSpace=wrap;html=1;" vertex="1" parent="vIIaNH_cV5r8bSQWFhUs-58">
          <mxGeometry y="60" width="160" height="26" as="geometry" />
        </mxCell>
      </root>
    </mxGraphModel>
  </diagram>
</mxfile>
